<?xml version="1.0" encoding="utf-8"?>
<!-- Generator: Adobe Illustrator 18.0.0, SVG Export Plug-In . SVG Version: 6.00 Build 0)  -->
<!DOCTYPE svg PUBLIC "-//W3C//DTD SVG 1.1//EN" "http://www.w3.org/Graphics/SVG/1.1/DTD/svg11.dtd">
<svg version="1.1" id="Layer_1" xmlns="http://www.w3.org/2000/svg" xmlns:xlink="http://www.w3.org/1999/xlink" x="0px" y="0px"
	 viewBox="0 0 351.3259 90.0016" style="enable-background:new 0 0 351.3259 90.0016;" xml:space="preserve">
<style type="text/css">
	.st0{opacity:0.5;}
	.st1{fill:#00FF5E;}
</style>
<path d="M30.3246,19.8508c13.2428,0.0224,26.4857-0.0224,39.7253,0c0.0161,3.394,0.0322,6.7879,0.0482,10.1819l0.0612-0.0608
	H40.1795v30.0564h29.9798l-0.0612-0.0607c-0.016,3.1828-0.0321,6.3625-0.0482,9.5421H39.9543v20.4919h-9.6297
	C30.3246,66.5956,30.3246,43.2536,30.3246,19.8508"/>
<rect x="220.3541" y="0.0003" width="10.2732" height="69.3447"/>
<rect x="180.5484" width="19.906" height="9.6221"/>
<path d="M351.3246,30.0001c-3.4394,0.016-6.8788,0.0288-10.3182,0.0448V19.7862h10.3182V30.0001z"/>
<path d="M341.0077,59.9554c3.4394,0.016,6.8788,0.0287,10.3182,0.0448v9.5742h-10.3182V59.9554z"/>
<path class="st0" d="M180.5526,0l-0.0033,9.6221l0.058-0.0512c-3.4201,0.0256-6.8402,0.0512-10.2636,0.08
	c-0.0193-3.218-0.0418-6.4329-0.0643-9.6509H180.5526z"/>
<path d="M170.3453,9.6496c3.4201-0.0256,6.8402-0.0543,10.2636-0.0799v10.1659H190.66v10.1276h-10.0254v39.525h-10.2667V30.1447
	h-9.5042V19.902h9.4816V9.6496z"/>
<path d="M341.0971,29.9556V60.044c-6.66-0.032-13.3232-0.0672-19.9833-0.0991l0.0901,0.0895c0-10.022,0-20.0472,0.0032-30.0724
	l-0.0933,0.0896C327.7771,30.0196,334.4371,29.9876,341.0971,29.9556"/>
<path d="M130.4238,29.9646c0,10.0252-0.0032,20.0504-0.0032,30.0724l0.0901-0.0896c-6.6568,0-13.3169-0.0032-19.9737-0.0032
	l0.0901,0.0928c0-10.0251,0.0032-20.0504,0.0032-30.0756l-0.09,0.0896c6.6568,0.0032,13.3168,0.0032,19.9736,0.0032
	L130.4238,29.9646z"/>
<path d="M250.5945,59.9231V19.995h10.1798v40.0305l0.0612-0.0576C257.4218,59.9519,254.0081,59.9391,250.5945,59.9231"/>
<path d="M280.7332,60.0261V20.0309h10.1798v39.8928c-3.4136,0.016-6.8273,0.0288-10.241,0.0448L280.7332,60.0261z"/>
<path d="M80.3366,30.0765c0,9.9485,0,19.8969,0,29.8453c-3.4137,0.016-6.8274,0.032-10.241,0.048l0.0611,0.0609
	c0-10.022,0-20.0408,0-30.0596l-0.0611,0.0608C73.5092,30.0478,76.9229,30.0606,80.3366,30.0765"/>
<path d="M280.6273,69.5107c-6.5828,0-13.1656,0-19.7484,0c-0.0129-3.1797-0.029-6.3625-0.0451-9.5422l-0.0611,0.0576
	c6.6536,0,13.3072,0,19.9608,0l-0.0611-0.0576C280.6563,63.1482,280.6434,66.331,280.6273,69.5107"/>
<polygon points="321.2062,29.962 311.1132,29.962 311.1132,19.9976 321.1161,19.9976 321.1161,30.0516 "/>
<polygon points="110.63,29.962 100.537,29.962 100.537,19.9976 110.5399,19.9976 110.5399,30.0516 "/>
<path class="st0" d="M80.3366,30.0765c-3.4137-0.0159-6.8274-0.0287-10.241-0.0447c-0.0129-3.394-0.029-6.788-0.0451-10.182h10.2861
	V30.0765z"/>
<polygon points="321.1125,59.9449 321.1125,69.3431 311.0903,69.3431 311.0903,60.0344 321.2026,60.0344 "/>
<path class="st0" d="M280.6273,69.5107c0.0161-3.1797,0.029-6.3625,0.0451-9.5422c3.4136-0.016,6.8273-0.032,10.2409-0.0448v9.587
	H280.6273z"/>
<path class="st0" d="M260.8345,59.9682c0.0161,3.1797,0.0289,6.3625,0.045,9.5422h-10.286v-9.587
	C254.0072,59.9394,257.4208,59.9522,260.8345,59.9682"/>
<polygon points="110.5364,59.9449 110.5364,69.3431 100.5142,69.3431 100.5142,60.0344 110.6265,60.0344 "/>
<polygon class="st1" points="10.1158,29.962 0.0228,29.962 0.0228,19.9976 10.0257,19.9976 10.0257,30.0516 "/>
<polygon class="st1" points="10.0222,59.9449 10.0222,69.3431 0,69.3431 0,60.0344 10.1123,60.0344 "/>
<path class="st0" d="M70.0969,59.9682c3.4136-0.016,6.8273-0.0288,10.2409-0.0448v9.587h-10.286
	C70.0679,66.3307,70.0808,63.1479,70.0969,59.9682"/>
<polygon points="130.5145,30.0551 130.5145,20.0203 139.8933,20.0203 139.8933,29.9655 130.4244,29.9655 "/>
<polygon points="130.4209,60.0379 139.8736,60.0379 139.8736,69.3626 130.511,69.3626 130.511,59.9484 "/>
</svg>
